HIERARCHY
ROOT Hips
{
	OFFSET 0.000000 0.000000 0.000000
	CHANNELS 6 Xposition Yposition Zposition Zrotation Yrotation Xrotation 
	JOINT LHipJoint
	{
		OFFSET 0.000000 0.000000 0.000000
		CHANNELS 3 Zrotation Yrotation Xrotation
		JOINT LeftUpLeg
		{
			OFFSET 8.178360 -10.767780 5.035740
			CHANNELS 3 Zrotation Yrotation Xrotation
			JOINT LeftLeg
			{
				OFFSET 14.688660 -40.356780 0.000000
				CHANNELS 3 Zrotation Yrotation Xrotation
				JOINT LeftFoot
				{
					OFFSET 15.373200 -42.237540 0.000000
					CHANNELS 3 Zrotation Yrotation Xrotation
					JOINT LeftToeBase
					{
						OFFSET 0.945840 -2.598660 13.935300
						CHANNELS 3 Zrotation Yrotation Xrotation
						End Site
						{
							OFFSET 0.000000 0.000000 0.000000
						}
					}
				}
			}
		}
	}
	JOINT RHipJoint
	{
		OFFSET 0.000000 0.000000 0.000000
		CHANNELS 3 Zrotation Yrotation Xrotation
		JOINT RightUpLeg
		{
			OFFSET -7.833120 -10.767780 5.035740
			CHANNELS 3 Zrotation Yrotation Xrotation
			JOINT RightLeg
			{
				OFFSET -15.255180 -41.913300 0.000000
				CHANNELS 3 Zrotation Yrotation Xrotation
				JOINT RightFoot
				{
					OFFSET -15.409560 -42.337380 0.000000
					CHANNELS 3 Zrotation Yrotation Xrotation
					JOINT RightToeBase
					{
						OFFSET -0.988380 -2.715540 14.178900
						CHANNELS 3 Zrotation Yrotation Xrotation
						End Site
						{
							OFFSET 0.000000 0.000000 0.000000
						}
					}
				}
			}
		}
	}
	JOINT LowerBack
	{
		OFFSET 0.000000 0.000000 0.000000
		CHANNELS 3 Zrotation Yrotation Xrotation
		JOINT Spine
		{
			OFFSET 0.169620 12.213540 -1.160280
			CHANNELS 3 Zrotation Yrotation Xrotation
			JOINT Spine1
			{
				OFFSET 0.340320 12.293100 -0.256500
				CHANNELS 3 Zrotation Yrotation Xrotation
				JOINT Neck
				{
					OFFSET 0.000000 0.000000 0.000000
					CHANNELS 3 Zrotation Yrotation Xrotation
					JOINT Neck1
					{
						OFFSET -0.325020 10.477440 1.032120
						CHANNELS 3 Zrotation Yrotation Xrotation
						JOINT Head
						{
							OFFSET 0.624420 10.568160 -0.743820
							CHANNELS 3 Zrotation Yrotation Xrotation
							End Site
							{
								OFFSET 0.000000 0.000000 0.000000
							}
						}
					}
				}
				JOINT LeftShoulder
				{
					OFFSET 0.000000 0.000000 0.000000
					CHANNELS 3 Zrotation Yrotation Xrotation
					JOINT LeftArm
					{
						OFFSET 20.174460 7.205340 -1.867260
						CHANNELS 3 Zrotation Yrotation Xrotation
						JOINT LeftForeArm
						{
							OFFSET 29.898000 -0.000000 -0.000000
							CHANNELS 3 Zrotation Yrotation Xrotation
							JOINT LeftHand
							{
								OFFSET 20.901360 -0.000000 -0.000000
								CHANNELS 3 Zrotation Yrotation Xrotation
								JOINT LeftFingerBase
								{
									OFFSET 0.000000 0.000000 0.000000
									CHANNELS 3 Zrotation Yrotation Xrotation
									JOINT LeftHandIndex1
									{
										OFFSET 4.291560 -0.000000 -0.000000
										CHANNELS 3 Zrotation Yrotation Xrotation
										End Site
										{
											OFFSET 0.000000 0.000000 0.000000
										}
									}
								}
								JOINT LThumb
								{
									OFFSET 0.000000 0.000000 0.000000
									CHANNELS 3 Zrotation Yrotation Xrotation
									End Site
									{
										OFFSET 0.000000 0.000000 0.000000
									}
								}
							}
						}
					}
				}
				JOINT RightShoulder
				{
					OFFSET 0.000000 0.000000 0.000000
					CHANNELS 3 Zrotation Yrotation Xrotation
					JOINT RightArm
					{
						OFFSET -18.819600 8.244300 -2.427900
						CHANNELS 3 Zrotation Yrotation Xrotation
						JOINT RightForeArm
						{
							OFFSET -31.451400 -0.000000 -0.000000
							CHANNELS 3 Zrotation Yrotation Xrotation
							JOINT RightHand
							{
								OFFSET -20.665020 -0.000000 -0.000000
								CHANNELS 3 Zrotation Yrotation Xrotation
								JOINT RightFingerBase
								{
									OFFSET 0.000000 0.000000 0.000000
									CHANNELS 3 Zrotation Yrotation Xrotation
									JOINT RightHandIndex1
									{
										OFFSET -3.735180 -0.000000 -0.000000
										CHANNELS 3 Zrotation Yrotation Xrotation
										End Site
										{
											OFFSET 0.000000 0.000000 0.000000
										}
									}
								}
								JOINT RThumb
								{
									OFFSET 0.000000 0.000000 0.000000
									CHANNELS 3 Zrotation Yrotation Xrotation
									End Site
									{
										OFFSET 0.000000 0.000000 0.000000
									}
								}
							}
						}
					}
				}
			}
		}
	}
}
MOTION
Frames:	6
Frame Time:	0.0333333
3.507930 106.248906 -54.608598 -3.909985 -2.586000 2.764029 2.271923 1.538182 0.735905 -13.502538 -10.502814 -31.102790 5.551199 14.852384 45.292102 -1.046635 6.465510 0.648775 0.081500 -1.841600 -5.068100 -3.423173 -2.819142 0.751312 33.396730 6.330888 0.869869 -1.050827 -5.768464 19.651820 0.738609 -5.039834 -6.259669 -0.038800 1.271200 -3.495500 4.494682 2.287424 6.837011 0.951016 3.086797 -1.343841 0.398827 1.965641 -3.787525 -7.721320 -4.024595 -12.017520 4.203195 -4.433305 12.794946 3.042500 -2.459800 9.192700 -7.589191 3.215535 -2.367385 -80.362402 5.260633 19.537238 10.103739 -19.243906 -2.014709 -0.881557 -3.052482 11.955070 12.797508 22.460778 5.742700 -7.125000 0.000000 0.000000 -17.881900 55.348700 -4.651300 5.832330 -2.158349 -2.044377 81.766650 0.913551 16.450461 -14.462930 21.599438 -3.585118 1.258616 -0.541907 7.052167 -17.402889 10.929255 -3.782300 7.125000 0.000000 0.000000 5.899000 -18.153600 3.787600 
3.539028 105.936102 -50.279328 -4.608666 -3.313697 3.436794 1.970554 1.373707 0.577058 -11.820775 -11.475675 -31.730320 3.044551 12.309676 35.340123 -1.592838 8.912751 2.353889 0.089200 -1.926100 -5.301600 -3.298656 -2.819190 0.764154 33.781736 5.103719 4.044585 -0.705802 -4.758559 16.938373 0.666442 -4.654541 -6.380482 -0.064900 1.643300 -4.520900 5.279479 2.742960 6.324911 0.943435 3.684904 -1.345236 -0.096361 2.289585 -3.382305 -7.587752 -4.017684 -12.705122 4.188298 -4.411484 12.748966 3.009900 -2.430300 9.309900 -7.626427 3.207076 -2.322749 -80.560650 5.522944 16.963714 9.368129 -17.923784 -1.646324 -0.919948 -3.096666 13.877709 12.170699 23.244954 5.589000 -7.125000 0.000000 0.000000 -19.087300 56.012100 -5.293200 5.785474 -2.099460 -2.064376 81.188481 2.571138 17.911495 -15.390990 22.982298 -4.189994 0.620317 0.022041 7.231944 -10.567814 6.128862 -1.186600 7.125000 0.000000 0.000000 11.473100 -23.862100 5.966800 
3.639030 105.571464 -45.834198 -4.992267 -4.122626 3.918386 1.631883 1.245869 0.442377 -10.255634 -12.623166 -31.452868 1.028775 9.330850 25.559505 -1.665091 9.634356 5.337247 0.253300 -3.238200 -8.942700 -3.165270 -2.828888 0.784548 33.568559 3.277243 7.177337 -0.428309 -3.827310 14.488174 0.525870 -4.048426 -6.840221 -0.015700 0.809800 -2.225600 5.694752 3.221623 6.177859 0.915283 4.320501 -1.446563 -0.454124 2.625879 -3.457425 -7.700421 -4.034685 -13.071735 4.445281 -4.405793 12.874260 3.137400 -2.410200 9.474900 -7.661020 3.229516 -2.312947 -80.855119 6.270230 14.483420 8.681560 -16.655065 -1.306089 -0.974108 -3.181704 14.903458 12.028563 24.279864 5.727800 -7.125000 0.000000 0.000000 -19.972400 57.047900 -6.060300 5.683264 -2.040467 -2.077902 80.496349 3.881385 19.262312 -16.119911 23.964052 -4.495563 1.106750 -0.642003 6.345942 -16.317763 13.031572 -4.203100 7.125000 0.000000 0.000000 6.785100 -15.927400 4.696100 
3.802446 105.158658 -41.159196 -5.303368 -5.192176 4.126301 1.423864 1.184943 0.356412 -8.495639 -14.931430 -30.703168 0.010249 7.204959 19.274813 -2.013467 10.563435 2.908480 0.127800 -2.304200 -6.347200 -3.092354 -2.850848 0.788234 33.197378 1.887768 10.617373 -0.204153 -2.971389 12.243298 0.510677 -3.658444 -5.631313 -0.019800 0.909400 -2.499600 5.986871 3.714129 5.871537 0.897786 4.950768 -1.454733 -0.711574 2.957891 -3.257191 -7.504007 -4.162024 -13.208694 4.403020 -4.615189 12.764713 3.048000 -2.491100 9.458800 -7.693789 3.262124 -2.258501 -81.234103 6.723440 11.140122 7.995713 -15.366952 -1.024436 -1.080457 -3.097479 17.162720 11.821083 23.837066 5.533200 -7.125000 0.000000 0.000000 -19.872600 56.542700 -5.782400 5.643037 -2.041502 -2.097130 79.941054 4.769860 20.070956 -16.756416 24.832798 -4.862764 1.044660 -0.489640 5.697182 -15.578000 11.921551 -3.635900 7.125000 0.000000 0.000000 7.340700 -17.268000 4.871200 
4.092078 104.679390 -36.436020 -4.782696 -5.873598 4.254357 1.365007 1.170757 0.347276 -9.565504 -14.534473 -30.701926 -0.238520 6.618031 17.700832 -1.886259 9.941454 2.078536 0.173400 -2.682200 -7.395300 -3.055044 -2.869538 0.785314 31.824513 1.558264 13.538014 -0.199506 -2.860604 12.055458 0.495470 -3.475115 -5.251254 -0.216200 2.993700 -8.261100 5.524791 4.100758 5.473677 0.774655 5.387115 -1.437699 -0.828804 3.195657 -3.003302 -7.304782 -4.222043 -13.248714 4.478787 -4.751892 12.633650 3.015400 -2.524900 9.405900 -7.711438 3.294007 -2.236595 -81.481410 7.355413 9.291166 7.651947 -14.748736 -0.915207 -1.138896 -2.978215 17.862209 12.015439 22.713066 5.413900 -7.125000 0.000000 0.000000 -18.881400 55.438200 -4.966500 5.598082 -2.043755 -2.084896 79.535916 5.813211 19.820080 -17.133230 25.322263 -5.074248 1.012953 -0.415957 5.336119 -15.246968 11.369936 -3.376300 7.125000 0.000000 0.000000 7.599300 -17.924400 4.935400 
4.470126 104.710488 -31.620768 -4.332154 -5.322599 3.861881 1.401877 1.198639 0.418482 -12.309296 -12.370010 -31.007868 0.119430 7.506331 20.369507 -0.912180 7.476036 9.634324 0.232700 -3.104500 -8.569800 -3.071717 -2.873082 0.770591 30.966309 1.200289 15.568697 -0.409055 -3.472235 13.885400 0.386893 -2.619082 -3.397737 -0.554800 4.771500 -13.258000 5.403778 3.950585 5.675159 0.705518 5.201572 -1.476389 -1.036626 3.100039 -3.227390 -7.332891 -4.367500 -13.120284 4.669771 -4.973053 12.743292 3.074300 -2.613300 9.467600 -7.757523 3.335221 -2.228369 -81.782858 7.950131 7.749285 7.343292 -14.136099 -0.788699 -1.290083 -2.908519 18.585455 12.974695 22.260413 5.808400 -7.125000 0.000000 0.000000 -17.526700 55.200800 -4.490800 5.555845 -2.047134 -2.089208 79.503316 5.961684 18.912505 -17.344421 25.591919 -5.182119 1.032919 -0.460003 4.800375 -15.460597 12.034237 -3.633600 7.125000 0.000000 0.000000 7.436700 -17.173900 4.951400 
